<mxfile host="app.diagrams.net" agent="Mozilla/5.0 (Windows NT 10.0; Win64; x64) AppleWebKit/537.36 (KHTML, like Gecko) Chrome/137.0.0.0 Safari/537.36" version="27.1.1">
  <diagram name="第 1 页" id="1mfvRtuxUBEFgE7KOjXi">
    <mxGraphModel dx="1011" dy="608" grid="1" gridSize="10" guides="1" tooltips="1" connect="1" arrows="1" fold="1" page="1" pageScale="1" pageWidth="827" pageHeight="1169" math="0" shadow="0">
      <root>
        <mxCell id="0" />
        <mxCell id="1" parent="0" />
        <mxCell id="jGY2bsTdQXZjSSOM8Elk-8" style="edgeStyle=orthogonalEdgeStyle;rounded=0;orthogonalLoop=1;jettySize=auto;html=1;fontSize=16;fillColor=#e3c800;strokeColor=#B09500;" edge="1" parent="1" source="jGY2bsTdQXZjSSOM8Elk-1" target="jGY2bsTdQXZjSSOM8Elk-2">
          <mxGeometry relative="1" as="geometry" />
        </mxCell>
        <mxCell id="jGY2bsTdQXZjSSOM8Elk-1" value="" style="shape=umlActor;verticalLabelPosition=bottom;verticalAlign=top;html=1;outlineConnect=0;fontSize=16;fillColor=#e3c800;fontColor=#000000;strokeColor=#B09500;" vertex="1" parent="1">
          <mxGeometry x="120" y="300" width="30" height="60" as="geometry" />
        </mxCell>
        <mxCell id="jGY2bsTdQXZjSSOM8Elk-9" style="edgeStyle=orthogonalEdgeStyle;rounded=0;orthogonalLoop=1;jettySize=auto;html=1;entryX=0;entryY=0.5;entryDx=0;entryDy=0;fontSize=16;fillColor=#e3c800;strokeColor=#B09500;" edge="1" parent="1" source="jGY2bsTdQXZjSSOM8Elk-2" target="jGY2bsTdQXZjSSOM8Elk-4">
          <mxGeometry relative="1" as="geometry" />
        </mxCell>
        <mxCell id="jGY2bsTdQXZjSSOM8Elk-2" value="&lt;font style=&quot;vertical-align: inherit;&quot; class=&quot;notranslate fyzs-translate-target fyzs-translate-target-wrapper&quot;&gt;&lt;font style=&quot;vertical-align: inherit;&quot; class=&quot;notranslate fyzs-translate-target fyzs-translate-target-box&quot;&gt;&lt;font style=&quot;vertical-align: inherit;&quot; title=&quot;q&quot; class=&quot;notranslate fyzs-translate-target fyzs-translate-target-text&quot;&gt;切面&lt;/font&gt;&lt;/font&gt;&lt;/font&gt;" style="rounded=0;whiteSpace=wrap;html=1;fontSize=16;fillColor=#e3c800;fontColor=#000000;strokeColor=#B09500;" vertex="1" parent="1">
          <mxGeometry x="270" y="300" width="120" height="60" as="geometry" />
        </mxCell>
        <mxCell id="jGY2bsTdQXZjSSOM8Elk-3" value="&lt;font style=&quot;vertical-align: inherit;&quot; class=&quot;notranslate fyzs-translate-target fyzs-translate-target-wrapper&quot;&gt;&lt;font style=&quot;vertical-align: inherit;&quot; class=&quot;notranslate fyzs-translate-target fyzs-translate-target-box&quot;&gt;&lt;font style=&quot;vertical-align: inherit;&quot; title=&quot;S&quot; class=&quot;notranslate fyzs-translate-target fyzs-translate-target-text&quot;&gt;ShareCodeAspect&lt;/font&gt;&lt;/font&gt;&lt;/font&gt;&lt;div&gt;&lt;font style=&quot;vertical-align: inherit;&quot; class=&quot;notranslate fyzs-translate-target fyzs-translate-target-wrapper&quot;&gt;&lt;font style=&quot;vertical-align: inherit;&quot; class=&quot;notranslate fyzs-translate-target fyzs-translate-target-box&quot;&gt;&lt;font style=&quot;vertical-align: inherit;&quot; title=&quot;S&quot; class=&quot;notranslate fyzs-translate-target fyzs-translate-target-text&quot;&gt;解密token获取分享码&lt;/font&gt;&lt;/font&gt;&lt;/font&gt;&lt;/div&gt;" style="ellipse;shape=cloud;whiteSpace=wrap;html=1;fontSize=16;fillColor=#e3c800;fontColor=#000000;strokeColor=#B09500;" vertex="1" parent="1">
          <mxGeometry x="210" y="150" width="224" height="120" as="geometry" />
        </mxCell>
        <mxCell id="jGY2bsTdQXZjSSOM8Elk-11" style="edgeStyle=orthogonalEdgeStyle;rounded=0;orthogonalLoop=1;jettySize=auto;html=1;fontSize=16;fillColor=#e3c800;strokeColor=#B09500;" edge="1" parent="1" source="jGY2bsTdQXZjSSOM8Elk-4" target="jGY2bsTdQXZjSSOM8Elk-5">
          <mxGeometry relative="1" as="geometry" />
        </mxCell>
        <mxCell id="jGY2bsTdQXZjSSOM8Elk-4" value="&lt;font style=&quot;vertical-align: inherit;&quot; class=&quot;notranslate fyzs-translate-target fyzs-translate-target-wrapper&quot;&gt;&lt;font style=&quot;vertical-align: inherit;&quot; class=&quot;notranslate fyzs-translate-target fyzs-translate-target-box&quot;&gt;&lt;font style=&quot;vertical-align: inherit;&quot; title=&quot;C&quot; class=&quot;notranslate fyzs-translate-target fyzs-translate-target-text&quot;&gt;Controller&lt;/font&gt;&lt;/font&gt;&lt;/font&gt;" style="rounded=0;whiteSpace=wrap;html=1;fontSize=16;fillColor=#e3c800;fontColor=#000000;strokeColor=#B09500;" vertex="1" parent="1">
          <mxGeometry x="540" y="300" width="120" height="60" as="geometry" />
        </mxCell>
        <mxCell id="jGY2bsTdQXZjSSOM8Elk-12" style="edgeStyle=orthogonalEdgeStyle;rounded=0;orthogonalLoop=1;jettySize=auto;html=1;fontSize=16;fillColor=#e3c800;strokeColor=#B09500;" edge="1" parent="1" source="jGY2bsTdQXZjSSOM8Elk-5" target="jGY2bsTdQXZjSSOM8Elk-6">
          <mxGeometry relative="1" as="geometry" />
        </mxCell>
        <mxCell id="jGY2bsTdQXZjSSOM8Elk-5" value="&lt;font style=&quot;vertical-align: inherit;&quot; class=&quot;notranslate fyzs-translate-target fyzs-translate-target-wrapper&quot;&gt;&lt;font style=&quot;vertical-align: inherit;&quot; class=&quot;notranslate fyzs-translate-target fyzs-translate-target-box&quot;&gt;&lt;font style=&quot;vertical-align: inherit;&quot; title=&quot;S&quot; class=&quot;notranslate fyzs-translate-target fyzs-translate-target-text&quot;&gt;Service&lt;/font&gt;&lt;/font&gt;&lt;/font&gt;" style="rounded=0;whiteSpace=wrap;html=1;fontSize=16;fillColor=#e3c800;fontColor=#000000;strokeColor=#B09500;" vertex="1" parent="1">
          <mxGeometry x="720" y="300" width="120" height="60" as="geometry" />
        </mxCell>
        <mxCell id="jGY2bsTdQXZjSSOM8Elk-6" value="&lt;font style=&quot;vertical-align: inherit;&quot; class=&quot;notranslate fyzs-translate-target fyzs-translate-target-wrapper&quot;&gt;&lt;font style=&quot;vertical-align: inherit;&quot; class=&quot;notranslate fyzs-translate-target fyzs-translate-target-box&quot;&gt;&lt;font style=&quot;vertical-align: inherit;&quot; title=&quot;M&quot; class=&quot;notranslate fyzs-translate-target fyzs-translate-target-text&quot;&gt;Mapper&lt;/font&gt;&lt;/font&gt;&lt;/font&gt;" style="rounded=0;whiteSpace=wrap;html=1;fontSize=16;fillColor=#e3c800;fontColor=#000000;strokeColor=#B09500;" vertex="1" parent="1">
          <mxGeometry x="890" y="300" width="120" height="60" as="geometry" />
        </mxCell>
        <mxCell id="jGY2bsTdQXZjSSOM8Elk-7" value="&lt;font style=&quot;vertical-align: inherit;&quot; class=&quot;notranslate fyzs-translate-target fyzs-translate-target-wrapper&quot;&gt;&lt;font style=&quot;vertical-align: inherit;&quot; class=&quot;notranslate fyzs-translate-target fyzs-translate-target-box&quot;&gt;&lt;font style=&quot;vertical-align: inherit;&quot; title=&quot;s&quot; class=&quot;notranslate fyzs-translate-target fyzs-translate-target-text&quot;&gt;数据库&lt;/font&gt;&lt;/font&gt;&lt;/font&gt;" style="shape=cylinder3;whiteSpace=wrap;html=1;boundedLbl=1;backgroundOutline=1;size=15;fontSize=16;fillColor=#e3c800;fontColor=#000000;strokeColor=#B09500;" vertex="1" parent="1">
          <mxGeometry x="1110" y="290" width="60" height="80" as="geometry" />
        </mxCell>
        <mxCell id="jGY2bsTdQXZjSSOM8Elk-10" value="&lt;font style=&quot;vertical-align: inherit;&quot; class=&quot;notranslate fyzs-translate-target fyzs-translate-target-wrapper&quot;&gt;&lt;font style=&quot;vertical-align: inherit;&quot; class=&quot;notranslate fyzs-translate-target fyzs-translate-target-box&quot;&gt;&lt;font style=&quot;vertical-align: inherit;&quot; title=&quot;T&quot; class=&quot;notranslate fyzs-translate-target fyzs-translate-target-text&quot;&gt;ThreadLocal传递分享码&lt;/font&gt;&lt;/font&gt;&lt;/font&gt;" style="text;html=1;align=center;verticalAlign=middle;resizable=0;points=[];autosize=1;strokeColor=#B09500;fillColor=#e3c800;fontSize=16;fontColor=#000000;" vertex="1" parent="1">
          <mxGeometry x="370" y="260" width="190" height="30" as="geometry" />
        </mxCell>
        <mxCell id="jGY2bsTdQXZjSSOM8Elk-13" style="edgeStyle=orthogonalEdgeStyle;rounded=0;orthogonalLoop=1;jettySize=auto;html=1;entryX=0;entryY=0.5;entryDx=0;entryDy=0;entryPerimeter=0;fontSize=16;fillColor=#e3c800;strokeColor=#B09500;" edge="1" parent="1" source="jGY2bsTdQXZjSSOM8Elk-6" target="jGY2bsTdQXZjSSOM8Elk-7">
          <mxGeometry relative="1" as="geometry" />
        </mxCell>
      </root>
    </mxGraphModel>
  </diagram>
</mxfile>
